# Blender 3.5.1
# www.blender.org
mtllib table.mtl
o Desk
v -0.391779 -0.900104 0.671066
v -0.391779 -0.139642 0.671066
v -0.325156 -0.229122 0.598708
v -0.391779 -0.900104 -0.626971
v -0.391779 -0.139642 -0.626971
v -0.325156 -0.229122 -0.538880
v 0.390561 -0.900104 0.671066
v 0.330873 -0.229122 0.598708
v 0.390561 -0.139642 0.671066
v 0.390561 -0.900104 -0.626971
v 0.390561 -0.139642 -0.626971
v 0.330873 -0.229122 -0.538880
v -0.391779 -0.229122 0.598708
v -0.391779 -0.900104 0.598708
v -0.391779 -0.900104 -0.538880
v -0.391779 -0.229122 -0.538880
v -0.325156 -0.229122 -0.626971
v -0.325156 -0.900104 -0.626971
v 0.330873 -0.229122 -0.626971
v 0.330873 -0.900104 -0.626971
v 0.390561 -0.229122 -0.538880
v 0.390561 -0.900104 0.598708
v 0.390561 -0.900104 -0.538880
v 0.390561 -0.229122 0.598708
v 0.330873 -0.229122 0.671066
v -0.325156 -0.900104 0.671066
v 0.330873 -0.900104 0.671066
v -0.325156 -0.229122 0.671066
v 0.330873 -0.900104 -0.538880
v -0.325156 -0.900104 -0.538880
v -0.325156 -0.900104 0.598708
v 0.330873 -0.900104 0.598708
vn -1.0000 -0.0000 -0.0000
vn -0.0000 -0.0000 -1.0000
vn 1.0000 -0.0000 -0.0000
vn -0.0000 -0.0000 1.0000
vn -0.0000 -1.0000 -0.0000
vn -0.0000 1.0000 -0.0000
vt 0.375000 0.000000
vt 0.375000 1.000000
vt 0.125000 0.750000
vt 0.625000 0.000000
vt 0.625000 1.000000
vt 0.875000 0.750000
vt 0.875000 0.750000
vt 0.625000 0.000000
vt 0.125000 0.500000
vt 0.375000 0.250000
vt 0.625000 0.250000
vt 0.875000 0.500000
vt 0.875000 0.500000
vt 0.625000 0.250000
vt 0.375000 0.750000
vt 0.625000 0.750000
vt 0.625000 0.750000
vt 0.375000 0.500000
vt 0.625000 0.500000
vt 0.625000 0.500000
vt 0.625000 0.000000
vt 0.595583 0.013936
vt 0.875000 0.750000
vt 0.125000 0.736064
vt 0.375000 0.013936
vt 0.483932 0.000000
vt 0.375000 0.233034
vt 0.125000 0.516966
vt 0.483932 0.250000
vt 0.595584 0.233034
vt 0.875000 0.500000
vt 0.625000 0.250000
vt 0.595584 0.271290
vt 0.875000 0.500000
vt 0.625000 0.250000
vt 0.483932 0.250000
vt 0.375000 0.271290
vt 0.146290 0.500000
vt 0.595584 0.480926
vt 0.625000 0.500000
vt 0.375000 0.480926
vt 0.355926 0.500000
vt 0.483932 0.500000
vt 0.595584 0.516966
vt 0.625000 0.500000
vt 0.375000 0.736064
vt 0.483932 0.750000
vt 0.483932 0.500000
vt 0.375000 0.516966
vt 0.595584 0.736064
vt 0.625000 0.750000
vt 0.595584 0.769074
vt 0.625000 0.750000
vt 0.375000 0.978710
vt 0.146290 0.750000
vt 0.483932 0.000000
vt 0.375000 0.769074
vt 0.355926 0.750000
vt 0.483932 0.750000
vt 0.595584 0.978710
vt 0.875000 0.750000
vt 0.625000 0.000000
vt 0.355926 0.516966
vt 0.483932 0.500000
vt 0.146290 0.516966
vt 0.483932 0.250000
vt 0.146290 0.736064
vt 0.483932 0.000000
vt 0.355926 0.736064
vt 0.483932 0.750000
s 0
usemtl Material.002
f 2/4/1 5/11/1 13/22/1
f 5/11/2 11/19/2 17/33/2
f 11/19/3 9/17/3 21/44/3
f 9/17/4 2/5/4 25/52/4
f 7/15/5 32/69/5 22/46/5
f 29/63/5 10/18/5 23/49/5
f 18/38/5 15/28/5 4/9/5
f 31/67/5 1/3/5 14/24/5
f 5/12/6 9/17/6 11/19/6
f 14/25/1 1/1/1 2/4/1
f 5/11/1 4/10/1 15/27/1
f 5/11/1 15/27/1 16/30/1
f 13/22/1 14/25/1 2/4/1
f 5/11/1 16/30/1 13/22/1
f 18/37/2 4/10/2 5/11/2
f 11/19/2 10/18/2 20/41/2
f 11/19/2 20/41/2 19/39/2
f 17/33/2 18/37/2 5/11/2
f 11/19/2 19/39/2 17/33/2
f 21/44/3 23/49/3 10/18/3
f 9/17/3 7/15/3 22/46/3
f 9/17/3 22/46/3 24/50/3
f 21/44/3 10/18/3 11/19/3
f 9/17/3 24/50/3 21/44/3
f 25/52/4 27/57/4 7/15/4
f 2/5/4 1/2/4 26/54/4
f 2/5/4 26/54/4 28/60/4
f 25/52/4 7/15/4 9/17/4
f 2/5/4 28/60/4 25/52/4
f 7/15/5 27/58/5 32/69/5
f 29/63/5 20/42/5 10/18/5
f 18/38/5 30/65/5 15/28/5
f 31/67/5 26/55/5 1/3/5
f 5/12/6 2/6/6 9/17/6
usemtl 
f 3/7/5 16/31/5 6/13/5
f 24/51/2 32/70/2 8/16/2
f 8/16/5 28/61/5 3/7/5
f 8/16/5 6/13/5 12/20/5
f 6/13/5 19/40/5 12/20/5
f 17/35/3 30/66/3 18/36/3
f 19/40/1 29/64/1 12/20/1
f 8/16/1 27/59/1 25/53/1
f 3/8/3 26/56/3 31/68/3
f 6/14/4 15/29/4 30/66/4
f 3/8/2 14/26/2 13/21/2
f 12/20/5 24/51/5 8/16/5
f 21/45/4 29/64/4 23/48/4
f 3/7/5 13/23/5 16/31/5
f 24/51/2 22/47/2 32/70/2
f 8/16/5 25/53/5 28/61/5
f 8/16/5 3/7/5 6/13/5
f 6/13/5 17/34/5 19/40/5
f 17/35/3 6/14/3 30/66/3
f 19/40/1 20/43/1 29/64/1
f 8/16/1 32/70/1 27/59/1
f 3/8/3 28/62/3 26/56/3
f 6/14/4 16/32/4 15/29/4
f 3/8/2 31/68/2 14/26/2
f 12/20/5 21/45/5 24/51/5
f 21/45/4 12/20/4 29/64/4
